<svg width="600" height="600" viewBox="0 0 1024 1024" fill="none" xmlns="http://www.w3.org/2000/svg">
<g clip-path="url(#clip0_101_9965)">
<path fill-rule="evenodd" clip-rule="evenodd" d="M524.766 1025.46V1025.46C438.808 1025.46 371.316 951.819 378.834 866.211L398.495 642.573H651.037L670.681 866.211C678.215 951.819 610.724 1025.46 524.766 1025.46" fill="#B78376"/>
<path fill-rule="evenodd" clip-rule="evenodd" d="M751.129 466.997C751.129 236.533 695.192 126.866 521.577 126.866C362.326 126.866 272.18 236.533 292.698 466.913C292.698 466.913 292.698 585.255 370.045 690.971C399.275 730.934 465.775 777.823 523.158 779.336C581.282 780.833 636.093 742.736 676.271 689.39C719.444 632.043 751.129 555.261 751.129 466.997" fill="#C99382"/>
<path fill-rule="evenodd" clip-rule="evenodd" d="M524.092 786.317C490.455 786.317 451.151 771.152 421.534 746.724C419.752 745.244 419.499 742.588 420.979 740.806C422.443 739.007 425.1 738.755 426.899 740.234C455.07 763.486 492.305 777.911 524.092 777.911C553.541 777.911 597.033 758.963 632.317 730.735C634.134 729.306 636.774 729.575 638.22 731.391C639.667 733.207 639.381 735.846 637.564 737.292C600.346 767.067 555.794 786.317 524.092 786.317" fill="#9B6160"/>
<path fill-rule="evenodd" clip-rule="evenodd" d="M552.627 609.858H511.658C507.431 609.858 504 606.432 504 602.211C504 597.99 507.431 594.564 511.658 594.564H544.77L541.738 478.604C541.707 477.151 542.09 475.714 542.84 474.459L566.197 435.704C568.372 432.079 573.089 430.917 576.703 433.104C580.333 435.276 581.497 439.971 579.307 443.596L557.099 480.439L560.285 602.012C560.331 604.077 559.55 606.065 558.11 607.549C556.67 609.017 554.695 609.858 552.627 609.858" fill="#9B6160"/>
<path fill-rule="evenodd" clip-rule="evenodd" d="M365.641 445.365C362.681 445.365 359.822 443.801 358.291 441.044C356.021 436.975 357.484 431.864 361.554 429.612C406.576 404.612 475.312 421.76 478.205 422.5C482.696 423.643 485.42 428.216 484.277 432.722C483.116 437.211 478.542 439.951 474.051 438.791C473.412 438.623 408.864 422.584 369.711 444.306C368.433 445.029 367.02 445.365 365.641 445.365" fill="#4A3D39"/>
<path fill-rule="evenodd" clip-rule="evenodd" d="M680.769 445.365C679.39 445.365 677.977 445.029 676.699 444.306C637.529 422.55 576.799 438.589 576.176 438.758C571.77 440.018 567.095 437.329 565.867 432.84C564.656 428.368 567.313 423.744 571.804 422.534C574.528 421.777 639.766 404.561 684.856 429.612C688.926 431.864 690.389 436.975 688.119 441.044C686.588 443.801 683.729 445.365 680.769 445.365" fill="#4A3D39"/>
<path fill-rule="evenodd" clip-rule="evenodd" d="M651.271 505.328C651.271 522.075 641.01 535.656 628.359 535.656C615.708 535.656 605.462 522.075 605.462 505.328C605.462 488.581 615.708 475 628.359 475C641.01 475 651.271 488.581 651.271 505.328" fill="#4A3D39"/>
<path fill-rule="evenodd" clip-rule="evenodd" d="M414.897 535.656C402.261 535.656 392 522.075 392 505.328C392 488.581 402.261 475 414.897 475C427.563 475 437.809 488.581 437.809 505.328C437.809 522.075 427.563 535.656 414.897 535.656Z" fill="#4A3D39"/>
<path fill-rule="evenodd" clip-rule="evenodd" d="M527.385 671.297C495.935 671.297 475.333 664.791 474.055 664.371C469.631 662.942 467.226 658.217 468.639 653.796C470.069 649.391 474.811 646.987 479.218 648.382C479.655 648.517 522.861 661.967 578.815 648.214C583.339 647.088 587.88 649.862 588.99 654.367C590.1 658.873 587.342 663.429 582.835 664.539C562.283 669.599 543.43 671.297 527.385 671.297" fill="#9B6160"/>
<path fill-rule="evenodd" clip-rule="evenodd" d="M528.018 716.745C512.158 716.745 501.781 711.768 501.125 711.449C497.997 709.919 496.719 706.136 498.249 703.009C499.797 699.899 503.53 698.604 506.675 700.117C507.466 700.521 526.706 709.465 552.656 699.377C555.885 698.167 559.552 699.714 560.813 702.975C562.075 706.22 560.477 709.868 557.214 711.129C546.366 715.349 536.427 716.745 528.018 716.745" fill="#9B6160"/>
<path fill-rule="evenodd" clip-rule="evenodd" d="M156.533 706.598C58.7016 961.609 255.777 1002.41 353.056 996.133C379.025 998.133 410.457 999.097 445.968 999.482C403.791 972.04 377.377 922.851 382.142 868.695L395.42 717.926C390.486 712.935 385.859 707.982 381.573 703.193C360.146 679.251 344.05 653.47 331.96 628.287C250.24 626.054 228.677 508.698 251.731 484.703C265.466 470.388 282.137 473 295.217 479.036C285.85 302.151 342.299 163.934 515.335 163.934C683.094 163.934 752.063 294.553 741.89 483.646C737.307 568.65 711.858 639.919 670.141 695.231C664.113 703.22 657.683 710.927 650.91 718.241L664.161 868.695C668.901 922.577 642.779 971.542 600.975 999.063C637.981 998.77 676.626 998.484 716.07 998.484C798.414 998.484 961.444 961.22 889.175 735.608C857.09 618.974 844.137 530.136 833.41 456.568C818.324 353.106 807.642 279.845 754.341 201.944C681.293 95.1944 516.264 55.3033 470.518 105.524C244.959 87.4328 217.625 312.856 193.919 508.354C184.711 584.292 176.05 655.715 156.533 706.598Z" fill="#4A3D39"/>
<path fill-rule="evenodd" clip-rule="evenodd" d="M741.881 464.724C741.961 470.474 742 476.308 742 482.225C742 541.512 726.79 595.364 703.202 641.129C740.644 646.968 771.404 596.353 782.427 573.651C803.899 529.359 787.512 478.506 765.947 467.739C757.512 463.53 748.937 463.443 741.881 464.724ZM297.57 466.857C289.779 464.097 277.52 461.763 265.543 467.739C243.979 478.506 227.591 529.359 249.063 573.651C261.086 598.412 296.573 656.377 338.629 638.085C338.629 638.085 338.634 638.078 338.642 638.065C298.791 556.296 298.791 482.145 298.791 482.145C298.325 476.986 297.918 471.889 297.57 466.857Z" fill="#B78376"/>
<path fill-rule="evenodd" clip-rule="evenodd" d="M334.091 326.42C337.845 324.328 350.862 324.896 350.862 324.896L326.453 353.809L337.13 355.333C337.13 355.333 298.923 387.457 305.781 487.898C307.163 508.168 308.154 528.827 297.477 513.616C199.744 259.075 345.645 115.386 533.035 115.419C752.651 115.451 817.232 363.019 801.469 571.993C621.505 632.868 644.696 384.376 622.09 317.29C588.955 218.909 485.078 283.805 485.078 283.805L440.843 270.102L442.371 286.853C442.371 286.853 395.861 279.621 375.271 285.329C347.823 315.004 334.091 326.42 334.091 326.42" fill="#4A3D39"/>
</g>
<defs>
<clipPath id="clip0_101_9965">
<rect width="1024" height="1024" fill="white"/>
</clipPath>
</defs>
</svg>

