<svg width="600" height="600" viewBox="0 0 1024 1024" fill="none" xmlns="http://www.w3.org/2000/svg">
<g clip-path="url(#clip0_101_9941)">
<path fill-rule="evenodd" clip-rule="evenodd" d="M324.629 621.085C282.573 639.377 247.086 581.412 235.063 556.651C213.591 512.359 229.979 461.506 251.543 450.739C271.285 440.89 291.793 453.614 291.793 453.614C291.793 453.614 326.789 486.512 334.906 556.085C339.776 597.715 324.629 621.085 324.629 621.085" fill="#B78376"/>
<path fill-rule="evenodd" clip-rule="evenodd" d="M725.861 621.085C767.902 639.377 803.404 581.412 815.427 556.651C836.899 512.359 820.512 461.506 798.947 450.739C779.205 440.89 758.698 453.614 758.698 453.614C758.698 453.614 723.702 486.512 715.584 556.085C710.714 597.715 725.861 621.085 725.861 621.085" fill="#B78376"/>
<mask id="mask0_101_9941" style="mask-type:alpha" maskUnits="userSpaceOnUse" x="342" y="675" width="359" height="321">
<path fill-rule="evenodd" clip-rule="evenodd" d="M342.19 675.856H700.82V995.064H342.19V675.856Z" fill="white"/>
</mask>
<g mask="url(#mask0_101_9941)">
<path fill-rule="evenodd" clip-rule="evenodd" d="M700.606 809.802L694.081 675.856H348.928L342.403 809.603C337.625 907.669 413.82 990.364 512.055 994.754C513.663 994.83 515.271 994.891 516.895 994.953C620.658 998.639 705.66 913.359 700.606 809.802" fill="#B78376"/>
</g>
<path fill-rule="evenodd" clip-rule="evenodd" d="M515.249 156C336.148 156 244.728 311.664 276.08 493.235C291.487 582.476 290.905 580.718 311.244 669.546C320.48 709.938 407.534 841.207 529.002 841.207C642.568 841.207 724.92 713.165 734.155 671.855C753.606 584.816 754.678 582.844 766.471 493.235C790.517 310.547 706.388 156 527.302 156H515.249Z" fill="#C99382"/>
<path fill-rule="evenodd" clip-rule="evenodd" d="M528.341 845.393C466.895 845.393 417.18 812.312 386.289 784.568C384.711 783.161 384.573 780.73 385.998 779.17C387.422 777.594 389.857 777.472 391.404 778.879C421.3 805.735 469.33 837.746 528.341 837.746C586.326 837.746 633.207 803.487 662.322 774.734C663.839 773.251 666.259 773.266 667.744 774.765C669.23 776.264 669.214 778.695 667.714 780.179C637.557 809.926 588.915 845.393 528.341 845.393" fill="#9B6160"/>
<path fill-rule="evenodd" clip-rule="evenodd" d="M552.627 609.858H511.658C507.431 609.858 504 606.432 504 602.211C504 597.99 507.431 594.564 511.658 594.564H544.77L541.738 478.604C541.707 477.151 542.09 475.714 542.84 474.459L566.197 435.704C568.372 432.079 573.089 430.917 576.703 433.104C580.333 435.276 581.497 439.971 579.307 443.596L557.099 480.439L560.285 602.012C560.331 604.077 559.55 606.065 558.11 607.549C556.67 609.017 554.695 609.858 552.627 609.858" fill="#9B6160"/>
<path fill-rule="evenodd" clip-rule="evenodd" d="M468.812 442.33C468.613 442.33 468.399 442.33 468.184 442.315L369.735 434.393L349.136 441.413C345.108 442.804 340.773 440.648 339.41 436.656C338.047 432.664 340.191 428.305 344.189 426.944L366.289 419.404C367.285 419.068 368.357 418.945 369.383 419.022L469.425 427.051C473.637 427.403 476.776 431.089 476.439 435.295C476.118 439.302 472.764 442.33 468.812 442.33" fill="#4A3D39"/>
<path fill-rule="evenodd" clip-rule="evenodd" d="M577.72 442.33C573.769 442.33 570.415 439.302 570.093 435.295C569.756 431.089 572.896 427.403 577.108 427.051L677.149 419.022C678.206 418.945 679.248 419.068 680.243 419.404L702.344 426.944C706.341 428.305 708.485 432.664 707.107 436.656C705.744 440.648 701.394 442.82 697.381 441.413L676.797 434.393L578.348 442.315C578.134 442.33 577.919 442.33 577.72 442.33" fill="#4A3D39"/>
<path fill-rule="evenodd" clip-rule="evenodd" d="M651.271 505.328C651.271 522.075 641.01 535.656 628.359 535.656C615.708 535.656 605.462 522.075 605.462 505.328C605.462 488.581 615.708 475 628.359 475C641.01 475 651.271 488.581 651.271 505.328" fill="#5C4E4A"/>
<path fill-rule="evenodd" clip-rule="evenodd" d="M414.897 535.656C402.261 535.656 392 522.075 392 505.328C392 488.581 402.261 475 414.897 475C427.563 475 437.809 488.581 437.809 505.328C437.809 522.075 427.563 535.656 414.897 535.656Z" fill="#5C4E4A"/>
<path fill-rule="evenodd" clip-rule="evenodd" d="M550.549 720.598H508.952C504.725 720.598 501.294 717.172 501.294 712.951C501.294 708.73 504.725 705.304 508.952 705.304H550.549C554.776 705.304 558.207 708.73 558.207 712.951C558.207 717.172 554.776 720.598 550.549 720.598" fill="#9B6160"/>
<path fill-rule="evenodd" clip-rule="evenodd" d="M564.466 668.384H491.135C478.484 668.384 466.385 664.453 456.154 657.005C452.738 654.527 451.973 649.74 454.469 646.33C456.966 642.904 461.744 642.17 465.175 644.647C472.771 650.168 481.746 653.09 491.135 653.09H564.466C575.034 653.09 585.295 650.031 594.148 644.25C597.67 641.94 602.434 642.919 604.746 646.467C607.059 650 606.063 654.741 602.525 657.051C591.177 664.468 578.02 668.384 564.466 668.384" fill="#9B6160"/>
<path fill-rule="evenodd" clip-rule="evenodd" d="M724.722 419.279L740.989 443.983L757.542 528.39C766.232 490.456 773.403 413.226 773.403 403.114C773.403 239.784 691.917 124.441 532.072 124.441C346.939 124.441 268.625 235.604 268.625 402.889C268.625 469.887 288.936 530.277 288.936 530.277L298.649 443.983C298.649 443.983 312.51 422.05 313.457 418.68C316.99 406.02 318.765 341.674 330.672 292.609C330.672 292.609 700.351 292.834 707.778 292.834C720.031 345.734 724.722 419.279 724.722 419.279Z" fill="#9B6160"/>
<path fill-rule="evenodd" clip-rule="evenodd" d="M707.777 294.626C707.777 294.626 755.752 357.189 771.267 411.333C779.746 341.024 781.49 285.562 776.92 246.82C774.094 222.909 769.854 189.875 724.36 132.93C708.709 113.349 707.431 145.589 707.431 145.589C707.431 145.589 704.951 121.678 668.267 96.3745C633.507 72.3889 647.098 103.401 647.098 103.401C647.098 103.401 630.17 87.3406 607.588 64.0292C585.007 40.7328 553.239 27.7737 538.445 26.0658C525.681 24.5976 504.257 48.0438 466.491 61.2127C410.052 80.8985 381.066 121.454 378.39 123.042C380.344 111.116 383.246 88.2544 353.613 116.06C328.295 139.791 303.098 178.474 301.76 179.777C302.015 168.706 300.662 149.859 285.883 175.103C266.128 208.856 259.077 245.411 259.077 245.411C250.703 276.783 270.353 422.584 270.353 422.584C287.297 352.275 331.738 295.33 331.738 295.33C331.738 295.33 419.584 291.12 528.583 305.877C609.001 291.12 707.777 294.626 707.777 294.626" fill="#4A3D39"/>
</g>
<defs>
<clipPath id="clip0_101_9941">
<rect width="1024" height="1024" fill="white"/>
</clipPath>
</defs>
</svg>

